<?xml version="1.0" encoding="utf-8"?>
<!-- Generator: Adobe Illustrator 19.0.1, SVG Export Plug-In . SVG Version: 6.00 Build 0)  -->
<svg version="1.1" xmlns="http://www.w3.org/2000/svg" xmlns:xlink="http://www.w3.org/1999/xlink" x="0px" y="0px" width="100%" height="100%"
	 viewBox="0 0 64.6 64.6" style="enable-background:new 0 0 64.6 64.6;" xml:space="preserve">
<style type="text/css">
	.st0{fill-rule:evenodd;clip-rule:evenodd;fill:#939598;}
	.st1{fill-rule:evenodd;clip-rule:evenodd;fill:#FFCC00;}
	.st2{fill-rule:evenodd;clip-rule:evenodd;fill:none;stroke:#231F20;stroke-width:1.9337;stroke-miterlimit:2.6131;}
	.st3{fill-rule:evenodd;clip-rule:evenodd;fill:#231F20;}
	.st4{fill:#231F20;}
</style>
<g id="text_x2B_icon">
	<g>
		<path class="st0" d="M-153.5,18l5.7-2.3l5.7-2.3c-0.1-0.3-0.2-0.6-0.2-0.9c0-0.3,0-0.5,0.1-0.7L-151,6c-0.4,0.3-0.9,0.6-1.4,0.6
			l-2.2,10.2C-154.1,17.1-153.7,17.5-153.5,18z"/>
		<path class="st0" d="M-161.2,32.3l2.3-5.7l2.3-5.7c-0.5-0.2-0.9-0.6-1.2-1.1l-10.2,2.2c0,0.5-0.2,1-0.6,1.4l5.7,8.8
			c0.2-0.1,0.5-0.1,0.7-0.1C-161.7,32.1-161.4,32.2-161.2,32.3z"/>
		<path class="st0" d="M-156.5,47.8l-2.3-5.7l-2.3-5.7c-0.3,0.1-0.6,0.2-0.9,0.2c-0.3,0-0.5,0-0.7-0.1l-5.7,8.8
			c0.3,0.4,0.6,0.9,0.6,1.4l10.2,2.2C-157.4,48.4-157,48-156.5,47.8z"/>
		<path class="st0" d="M-142.2,55.4l-5.7-2.3l-5.7-2.3c-0.2,0.5-0.6,0.9-1.1,1.2l2.2,10.2c0.5,0,1,0.2,1.4,0.6l8.8-5.7
			c-0.1-0.2-0.1-0.5-0.1-0.7C-142.4,56-142.3,55.7-142.2,55.4z"/>
		<path class="st0" d="M-126.7,50.8l-5.7,2.3l-5.7,2.3c0.1,0.3,0.2,0.6,0.2,0.9c0,0.3,0,0.5-0.1,0.7l8.8,5.7
			c0.4-0.3,0.9-0.6,1.4-0.6l2.2-10.2C-126.1,51.7-126.5,51.3-126.7,50.8z"/>
		<path class="st0" d="M-119,36.2l-2.4,5.9l-2.3,5.7c0.5,0.2,0.9,0.6,1.2,1.1l10.2-2.2c0-0.5,0.2-1,0.6-1.4l-5.9-9.1
			c-0.2,0.1-0.5,0.1-0.7,0.1C-118.5,36.3-118.8,36.3-119,36.2z"/>
		<path class="st0" d="M-123.7,21l2.3,5.7l2.2,5.3c0.3-0.1,0.6-0.2,0.9-0.2c0.3,0,0.5,0,0.8,0.1l5.8-8.5c-0.3-0.4-0.5-0.9-0.6-1.4
			l-10.2-2.2C-122.8,20.4-123.2,20.8-123.7,21z"/>
		<path class="st0" d="M-138,13.3l5.7,2.3l5.7,2.3c0.2-0.5,0.6-0.9,1.1-1.2l-2.2-10.2c-0.5,0-1-0.2-1.4-0.6l-8.8,5.7
			c0.1,0.2,0.1,0.5,0.1,0.7C-137.9,12.8-137.9,13.1-138,13.3z"/>
		<path class="st1" d="M-168.5,20.3l7.2-7.2l7.2-7.2c0.2,0.2,0.4,0.3,0.6,0.4l-2.2,10.2c-1.2,0.1-2.1,1-2.2,2.2l-10.2,2.2
			C-168.2,20.7-168.4,20.5-168.5,20.3z"/>
		<path class="st1" d="M-170.1,44.6V34.4V24.2c0.3,0,0.5,0,0.7-0.1l5.7,8.8c-0.4,0.4-0.6,0.9-0.6,1.5c0,0.6,0.2,1.1,0.6,1.5
			l-5.7,8.8C-169.7,44.6-169.9,44.6-170.1,44.6L-170.1,44.6z"/>
		<path class="st1" d="M-154.2,62.8l-7.2-7.2l-7.2-7.2c0.2-0.2,0.3-0.4,0.4-0.6l10.2,2.2c0.1,1.2,1,2.1,2.2,2.2l2.2,10.2
			C-153.8,62.5-154,62.6-154.2,62.8z"/>
		<path class="st1" d="M-129.9,64.4l-10.2,0l-10.2,0c0-0.3,0-0.5-0.1-0.7l8.8-5.7c0.4,0.4,0.9,0.6,1.5,0.6c0.6,0,1.1-0.2,1.5-0.6
			l8.8,5.7C-129.9,63.9-129.9,64.2-129.9,64.4L-129.9,64.4z"/>
		<path class="st1" d="M-111.7,48.4l-7.2,7.2l-7.2,7.2c-0.2-0.2-0.4-0.3-0.6-0.4l2.2-10.2c1.2-0.1,2.1-1,2.2-2.2l10.2-2.2
			C-112,48-111.9,48.2-111.7,48.4z"/>
		<path class="st1" d="M-110.1,24.2v10.2v10.2c-0.2,0-0.5,0-0.7,0.1l-5.9-9.1c0.4-0.4,0.6-0.9,0.6-1.5c0-0.6-0.2-1.1-0.6-1.5
			l5.8-8.5C-110.6,24.2-110.4,24.2-110.1,24.2L-110.1,24.2z"/>
		<path class="st1" d="M-126.1,6l7.2,7.2l7.2,7.2c-0.2,0.2-0.3,0.4-0.4,0.6l-10.2-2.2c-0.1-1.2-1-2.1-2.2-2.2l-2.2-10.2
			C-126.5,6.3-126.3,6.1-126.1,6z"/>
		<path class="st1" d="M-150.3,4.4l10.2,0l10.2,0c0,0.3,0,0.5,0.1,0.7l-8.8,5.7c-0.4-0.4-0.9-0.6-1.5-0.6c-0.6,0-1.1,0.2-1.5,0.6
			l-8.8-5.7C-150.3,4.8-150.3,4.6-150.3,4.4L-150.3,4.4z"/>
		<g>
			<g>
				<polygon class="st2" points="-153.4,2.3 -141,2.3 -128.5,2.3 -119.7,11.1 -111,19.9 -111,32.3 -111,44.7 -119.7,53.5 
					-128.5,62.3 -141,62.3 -153.4,62.3 -162.2,53.5 -171,44.7 -171,32.3 -171,19.9 -162.2,11.1 				"/>
				<polygon class="st2" points="-141,10.4 -133.2,13.6 -125.5,16.8 -122.3,24.5 -119.1,32.3 -122.3,40 -125.5,47.8 -133.2,51 
					-141,54.2 -148.7,51 -156.5,47.8 -159.7,40 -162.9,32.3 -159.7,24.5 -156.5,16.8 -148.7,13.6 				"/>
				<polygon class="st2" points="-162.9,32.3 -171,19.9 -156.5,16.8 -153.4,2.3 -141,10.4 -128.5,2.3 -125.5,16.8 -111,19.9 
					-119.2,32 -111,44.7 -125.5,47.8 -128.5,62.3 -141,54.2 -153.4,62.3 -156.5,47.8 -171,44.7 				"/>
			</g>
			<g>
				<path class="st3" d="M-171,22.1c1.2,0,2.3-1,2.3-2.3s-1-2.3-2.3-2.3c-1.2,0-2.3,1-2.3,2.3S-172.3,22.1-171,22.1z"/>
				<path class="st3" d="M-162.9,34.6c1.2,0,2.3-1,2.3-2.3c0-1.2-1-2.3-2.3-2.3c-1.2,0-2.3,1-2.3,2.3
					C-165.2,33.5-164.2,34.6-162.9,34.6z"/>
				<path class="st3" d="M-171,47c1.2,0,2.3-1,2.3-2.3c0-1.2-1-2.3-2.3-2.3c-1.2,0-2.3,1-2.3,2.3C-173.3,46-172.3,47-171,47z"/>
				<path class="st3" d="M-156.5,50.1c1.2,0,2.3-1,2.3-2.3s-1-2.3-2.3-2.3s-2.3,1-2.3,2.3S-157.7,50.1-156.5,50.1z"/>
				<path class="st3" d="M-153.4,64.6c1.2,0,2.3-1,2.3-2.3c0-1.2-1-2.3-2.3-2.3c-1.2,0-2.3,1-2.3,2.3
					C-155.7,63.6-154.7,64.6-153.4,64.6z"/>
				<path class="st3" d="M-141,56.5c1.2,0,2.3-1,2.3-2.3s-1-2.3-2.3-2.3c-1.2,0-2.3,1-2.3,2.3S-142.2,56.5-141,56.5z"/>
				<path class="st3" d="M-128.5,64.6c1.2,0,2.3-1,2.3-2.3c0-1.2-1-2.3-2.3-2.3c-1.2,0-2.3,1-2.3,2.3
					C-130.8,63.6-129.8,64.6-128.5,64.6z"/>
				<path class="st3" d="M-125.5,50.1c1.2,0,2.3-1,2.3-2.3s-1-2.3-2.3-2.3c-1.2,0-2.3,1-2.3,2.3S-126.7,50.1-125.5,50.1z"/>
				<path class="st3" d="M-111,47c1.2,0,2.3-1,2.3-2.3c0-1.2-1-2.3-2.3-2.3c-1.2,0-2.3,1-2.3,2.3C-113.2,46-112.2,47-111,47z"/>
				<path class="st3" d="M-119.2,34.2c1.2,0,2.3-1,2.3-2.3c0-1.2-1-2.3-2.3-2.3c-1.2,0-2.3,1-2.3,2.3
					C-121.5,33.2-120.4,34.2-119.2,34.2z"/>
				<path class="st3" d="M-125.5,19c1.2,0,2.3-1,2.3-2.3c0-1.2-1-2.3-2.3-2.3c-1.2,0-2.3,1-2.3,2.3C-127.7,18-126.7,19-125.5,19z"/>
				<path class="st3" d="M-141,12.6c1.2,0,2.3-1,2.3-2.3c0-1.2-1-2.3-2.3-2.3c-1.2,0-2.3,1-2.3,2.3C-143.2,11.6-142.2,12.6-141,12.6
					z"/>
				<path class="st3" d="M-156.5,19c1.2,0,2.3-1,2.3-2.3c0-1.2-1-2.3-2.3-2.3s-2.3,1-2.3,2.3C-158.8,18-157.7,19-156.5,19z"/>
				<path class="st3" d="M-111,22.1c1.2,0,2.3-1,2.3-2.3c0-1.2-1-2.3-2.3-2.3c-1.2,0-2.3,1-2.3,2.3C-113.2,21.1-112.2,22.1-111,22.1
					z"/>
				<path class="st3" d="M-128.5,4.5c1.2,0,2.3-1,2.3-2.3c0-1.2-1-2.3-2.3-2.3c-1.2,0-2.3,1-2.3,2.3C-130.8,3.5-129.8,4.5-128.5,4.5
					z"/>
				<path class="st3" d="M-153.4,4.5c1.2,0,2.3-1,2.3-2.3s-1-2.3-2.3-2.3c-1.2,0-2.3,1-2.3,2.3S-154.7,4.5-153.4,4.5z"/>
			</g>
		</g>
		<g>
			<path class="st4" d="M-138.2,21.5v21.6h-4.4V28.3h-5v-2.8c1.5,0,2.6-0.2,3.4-0.4c0.8-0.3,1.4-0.7,1.8-1.3
				c0.4-0.6,0.7-1.3,0.7-2.2H-138.2z"/>
		</g>
	</g>
	<g>
		<rect x="-234.6" y="30.9" class="st1" width="13.5" height="4.1"/>
		<rect x="-198.9" y="34.9" class="st1" width="13.5" height="4.1"/>
		<rect x="-232.9" y="15.7" class="st1" width="4.1" height="19.3"/>
		
			<rect x="-206.7" y="16.1" transform="matrix(0.5781 0.816 -0.816 0.5781 -65.537 177.778)" class="st1" width="4.1" height="18.9"/>
		
			<rect x="-206.6" y="23.1" transform="matrix(0.5515 -0.8341 0.8341 0.5515 -118.862 -156.0583)" class="st1" width="4.1" height="18.9"/>
		<rect x="-253.8" y="34.9" class="st1" width="14" height="4.1"/>
		<rect x="-286.7" y="31" class="st1" width="32.9" height="4.1"/>
		<rect x="-286.7" y="39.3" class="st0" width="32.9" height="4.1"/>
		<rect x="-237.3" y="38.6" class="st0" width="16.2" height="4.9"/>
		<g>
			<path class="st3" d="M-195.4,54.7c1.8,0,3.3-1.5,3.3-3.3c0-1.8-1.5-3.3-3.3-3.3c-1.8,0-3.3,1.5-3.3,3.3
				C-198.7,53.2-197.2,54.7-195.4,54.7z"/>
			<path class="st3" d="M-188.7,54.7c1.8,0,3.3-1.5,3.3-3.3c0-1.8-1.5-3.3-3.3-3.3c-1.8,0-3.3,1.5-3.3,3.3
				C-192.1,53.2-190.6,54.7-188.7,54.7z"/>
		</g>
		<path class="st3" d="M-246.2,28.9c1.8,0,3.3-1.5,3.3-3.3c0-1.8-1.5-3.3-3.3-3.3c-1.8,0-3.3,1.5-3.3,3.3
			C-249.5,27.4-248,28.9-246.2,28.9z"/>
		<g>
			<path class="st3" d="M-225.5,22.2c1.8,0,3.3-1.5,3.3-3.3c0-1.8-1.5-3.3-3.3-3.3c-1.8,0-3.3,1.5-3.3,3.3
				C-228.8,20.7-227.3,22.2-225.5,22.2z"/>
			<path class="st3" d="M-218.8,22.2c1.8,0,3.3-1.5,3.3-3.3c0-1.8-1.5-3.3-3.3-3.3c-1.8,0-3.3,1.5-3.3,3.3
				C-222.2,20.7-220.7,22.2-218.8,22.2z"/>
		</g>
		<g>
			<path class="st3" d="M-272.7,22.2c1.8,0,3.3-1.5,3.3-3.3c0-1.8-1.5-3.3-3.3-3.3c-1.8,0-3.3,1.5-3.3,3.3
				C-276,20.7-274.6,22.2-272.7,22.2z"/>
			<path class="st3" d="M-266.1,22.2c1.8,0,3.3-1.5,3.3-3.3c0-1.8-1.5-3.3-3.3-3.3c-1.8,0-3.3,1.5-3.3,3.3
				C-269.4,20.7-267.9,22.2-266.1,22.2z"/>
		</g>
		<polygon class="st0" points="-221.1,29.3 -221.1,39.1 -205,39.1 		"/>
		<g>
			<polygon class="st4" points="-199,43.4 -224.8,43.4 -224.8,39 -206.4,39 -221.1,29.3 -200.7,14.8 -198.2,18.4 -213.3,29.2 
				-197.8,39.4 			"/>
		</g>
		<g>
			<rect x="-203" y="39" class="st4" width="17.5" height="4.4"/>
		</g>
		<g>
			<rect x="-257.4" y="39" class="st4" width="17.5" height="4.4"/>
		</g>
		<g>
			<polygon class="st4" points="-221.1,39.4 -237.3,39.4 -237.3,15.7 -232.9,15.7 -232.9,35 -221.1,35 			"/>
		</g>
		<g>
			<rect x="-286.7" y="35.1" class="st4" width="32.9" height="4.3"/>
		</g>
	</g>
</g>
<g id="icon">
	<g>
		<path class="st0" d="M19.7,18l5.7-2.3l5.7-2.3c-0.1-0.3-0.2-0.6-0.2-0.9c0-0.3,0-0.5,0.1-0.7L22.2,6c-0.4,0.3-0.9,0.6-1.4,0.6
			l-2.2,10.2C19.1,17.1,19.5,17.5,19.7,18z"/>
		<path class="st0" d="M12.1,32.3l2.3-5.7l2.3-5.7c-0.5-0.2-0.9-0.6-1.2-1.1L5.4,22c0,0.5-0.2,1-0.6,1.4l5.7,8.8
			c0.2-0.1,0.5-0.1,0.7-0.1C11.5,32.1,11.8,32.2,12.1,32.3z"/>
		<path class="st0" d="M16.8,47.8l-2.3-5.7l-2.3-5.7c-0.3,0.1-0.6,0.2-0.9,0.2c-0.3,0-0.5,0-0.7-0.1l-5.7,8.8
			c0.3,0.4,0.6,0.9,0.6,1.4l10.2,2.2C15.9,48.4,16.3,48,16.8,47.8z"/>
		<path class="st0" d="M31.1,55.4l-5.7-2.3l-5.7-2.3c-0.2,0.5-0.6,0.9-1.1,1.2l2.2,10.2c0.5,0,1,0.2,1.4,0.6L31,57
			c-0.1-0.2-0.1-0.5-0.1-0.7C30.9,56,31,55.7,31.1,55.4z"/>
		<path class="st0" d="M46.6,50.8l-5.7,2.3l-5.7,2.3c0.1,0.3,0.2,0.6,0.2,0.9c0,0.3,0,0.5-0.1,0.7l8.8,5.7c0.4-0.3,0.9-0.6,1.4-0.6
			l2.2-10.2C47.2,51.7,46.8,51.3,46.6,50.8z"/>
		<path class="st0" d="M54.3,36.2l-2.4,5.9l-2.3,5.7c0.5,0.2,0.9,0.6,1.2,1.1l10.2-2.2c0-0.5,0.2-1,0.6-1.4l-5.9-9.1
			c-0.2,0.1-0.5,0.1-0.7,0.1C54.7,36.3,54.5,36.3,54.3,36.2z"/>
		<path class="st0" d="M49.5,21l2.3,5.7l2.2,5.3c0.3-0.1,0.6-0.2,0.9-0.2c0.3,0,0.5,0,0.8,0.1l5.8-8.5c-0.3-0.4-0.5-0.9-0.6-1.4
			l-10.2-2.2C50.4,20.4,50,20.8,49.5,21z"/>
		<path class="st0" d="M35.2,13.3l5.7,2.3l5.7,2.3c0.2-0.5,0.6-0.9,1.1-1.2L45.5,6.6c-0.5,0-1-0.2-1.4-0.6l-8.8,5.7
			c0.1,0.2,0.1,0.5,0.1,0.7C35.4,12.8,35.4,13.1,35.2,13.3z"/>
		<path class="st1" d="M4.7,20.3l7.2-7.2L19.1,6c0.2,0.2,0.4,0.3,0.6,0.4l-2.2,10.2c-1.2,0.1-2.1,1-2.2,2.2L5.2,20.9
			C5,20.7,4.9,20.5,4.7,20.3z"/>
		<path class="st1" d="M3.1,44.6V34.4V24.2c0.3,0,0.5,0,0.7-0.1l5.7,8.8C9.2,33.3,9,33.8,9,34.4c0,0.6,0.2,1.1,0.6,1.5l-5.7,8.8
			C3.6,44.6,3.4,44.6,3.1,44.6L3.1,44.6z"/>
		<path class="st1" d="M19.1,62.8l-7.2-7.2l-7.2-7.2C4.9,48.2,5,48,5.2,47.8L15.4,50c0.1,1.2,1,2.1,2.2,2.2l2.2,10.2
			C19.5,62.5,19.3,62.6,19.1,62.8z"/>
		<path class="st1" d="M43.3,64.4l-10.2,0l-10.2,0c0-0.3,0-0.5-0.1-0.7l8.8-5.7c0.4,0.4,0.9,0.6,1.5,0.6s1.1-0.2,1.5-0.6l8.8,5.7
			C43.4,63.9,43.3,64.2,43.3,64.4L43.3,64.4z"/>
		<path class="st1" d="M61.6,48.4l-7.2,7.2l-7.2,7.2c-0.2-0.2-0.4-0.3-0.6-0.4l2.2-10.2c1.2-0.1,2.1-1,2.2-2.2l10.2-2.2
			C61.3,48,61.4,48.2,61.6,48.4z"/>
		<path class="st1" d="M63.2,24.2v10.2v10.2c-0.2,0-0.5,0-0.7,0.1l-5.9-9.1c0.4-0.4,0.6-0.9,0.6-1.5c0-0.6-0.2-1.1-0.6-1.5l5.8-8.5
			C62.7,24.2,62.9,24.2,63.2,24.2L63.2,24.2z"/>
		<path class="st1" d="M47.2,6l7.2,7.2l7.2,7.2c-0.2,0.2-0.3,0.4-0.4,0.6l-10.2-2.2c-0.1-1.2-1-2.1-2.2-2.2L46.6,6.4
			C46.8,6.3,47,6.1,47.2,6z"/>
		<path class="st1" d="M23,4.4l10.2,0l10.2,0c0,0.3,0,0.5,0.1,0.7l-8.8,5.7c-0.4-0.4-0.9-0.6-1.5-0.6s-1.1,0.2-1.5,0.6l-8.8-5.7
			C22.9,4.8,23,4.6,23,4.4L23,4.4z"/>
		<g>
			<g>
				<polygon class="st2" points="19.9,2.3 32.3,2.3 44.7,2.3 53.5,11.1 62.3,19.9 62.3,32.3 62.3,44.7 53.5,53.5 44.7,62.3 
					32.3,62.3 19.9,62.3 11.1,53.5 2.3,44.7 2.3,32.3 2.3,19.9 11.1,11.1 				"/>
				<polygon class="st2" points="32.3,10.4 40,13.6 47.8,16.8 51,24.5 54.2,32.3 51,40 47.8,47.8 40,51 32.3,54.2 24.5,51 
					16.8,47.8 13.6,40 10.4,32.3 13.6,24.5 16.8,16.8 24.5,13.6 				"/>
				<polygon class="st2" points="10.4,32.3 2.3,19.9 16.8,16.8 19.9,2.3 32.3,10.4 44.7,2.3 47.8,16.8 62.3,19.9 54.1,32 62.3,44.7 
					47.8,47.8 44.7,62.3 32.3,54.2 19.9,62.3 16.8,47.8 2.3,44.7 				"/>
			</g>
			<g>
				<path class="st3" d="M2.3,22.1c1.2,0,2.3-1,2.3-2.3s-1-2.3-2.3-2.3c-1.2,0-2.3,1-2.3,2.3S1,22.1,2.3,22.1z"/>
				<path class="st3" d="M10.4,34.6c1.2,0,2.3-1,2.3-2.3c0-1.2-1-2.3-2.3-2.3s-2.3,1-2.3,2.3C8.1,33.5,9.1,34.6,10.4,34.6z"/>
				<path class="st3" d="M2.3,47c1.2,0,2.3-1,2.3-2.3c0-1.2-1-2.3-2.3-2.3c-1.2,0-2.3,1-2.3,2.3C0,46,1,47,2.3,47z"/>
				<path class="st3" d="M16.8,50.1c1.2,0,2.3-1,2.3-2.3s-1-2.3-2.3-2.3s-2.3,1-2.3,2.3S15.5,50.1,16.8,50.1z"/>
				<path class="st3" d="M19.9,64.6c1.2,0,2.3-1,2.3-2.3c0-1.2-1-2.3-2.3-2.3c-1.2,0-2.3,1-2.3,2.3C17.6,63.6,18.6,64.6,19.9,64.6z"
					/>
				<path class="st3" d="M32.3,56.5c1.2,0,2.3-1,2.3-2.3s-1-2.3-2.3-2.3S30,53,30,54.2S31,56.5,32.3,56.5z"/>
				<path class="st3" d="M44.7,64.6c1.2,0,2.3-1,2.3-2.3c0-1.2-1-2.3-2.3-2.3s-2.3,1-2.3,2.3C42.5,63.6,43.5,64.6,44.7,64.6z"/>
				<path class="st3" d="M47.8,50.1c1.2,0,2.3-1,2.3-2.3s-1-2.3-2.3-2.3c-1.2,0-2.3,1-2.3,2.3S46.6,50.1,47.8,50.1z"/>
				<path class="st3" d="M62.3,47c1.2,0,2.3-1,2.3-2.3c0-1.2-1-2.3-2.3-2.3s-2.3,1-2.3,2.3C60.1,46,61.1,47,62.3,47z"/>
				<path class="st3" d="M54.1,34.2c1.2,0,2.3-1,2.3-2.3c0-1.2-1-2.3-2.3-2.3s-2.3,1-2.3,2.3C51.8,33.2,52.8,34.2,54.1,34.2z"/>
				<path class="st3" d="M47.8,19c1.2,0,2.3-1,2.3-2.3c0-1.2-1-2.3-2.3-2.3c-1.2,0-2.3,1-2.3,2.3C45.5,18,46.6,19,47.8,19z"/>
				<path class="st3" d="M32.3,12.6c1.2,0,2.3-1,2.3-2.3c0-1.2-1-2.3-2.3-2.3s-2.3,1-2.3,2.3C30,11.6,31,12.6,32.3,12.6z"/>
				<path class="st3" d="M16.8,19c1.2,0,2.3-1,2.3-2.3c0-1.2-1-2.3-2.3-2.3s-2.3,1-2.3,2.3C14.5,18,15.5,19,16.8,19z"/>
				<path class="st3" d="M62.3,22.1c1.2,0,2.3-1,2.3-2.3c0-1.2-1-2.3-2.3-2.3s-2.3,1-2.3,2.3C60.1,21.1,61.1,22.1,62.3,22.1z"/>
				<path class="st3" d="M44.7,4.5c1.2,0,2.3-1,2.3-2.3C47,1,46,0,44.7,0s-2.3,1-2.3,2.3C42.5,3.5,43.5,4.5,44.7,4.5z"/>
				<path class="st3" d="M19.9,4.5c1.2,0,2.3-1,2.3-2.3S21.1,0,19.9,0c-1.2,0-2.3,1-2.3,2.3S18.6,4.5,19.9,4.5z"/>
			</g>
		</g>
		<g>
			<path class="st4" d="M35.1,21.5v21.6h-4.4V28.3h-5v-2.8c1.5,0,2.6-0.2,3.4-0.4c0.8-0.3,1.4-0.7,1.8-1.3c0.4-0.6,0.7-1.3,0.7-2.2
				H35.1z"/>
		</g>
	</g>
</g>
<g id="text">
	<g>
		<rect x="129.1" y="27.9" class="st1" width="13.5" height="4.1"/>
		<rect x="164.8" y="31.9" class="st1" width="13.5" height="4.1"/>
		<rect x="130.8" y="12.7" class="st1" width="4.1" height="19.3"/>
		<rect x="157" y="13.1" transform="matrix(0.5781 0.816 -0.816 0.5781 85.4582 -120.249)" class="st1" width="4.1" height="18.9"/>
		
			<rect x="157.1" y="20.1" transform="matrix(0.5515 -0.8341 0.8341 0.5515 46.7426 145.9754)" class="st1" width="4.1" height="18.9"/>
		<rect x="109.9" y="31.9" class="st1" width="14" height="4.1"/>
		<rect x="77" y="28" class="st1" width="32.9" height="4.1"/>
		<rect x="77" y="36.3" class="st0" width="32.9" height="4.1"/>
		<rect x="126.4" y="35.6" class="st0" width="16.2" height="4.9"/>
		<g>
			<path class="st3" d="M168.3,51.7c1.8,0,3.3-1.5,3.3-3.3c0-1.8-1.5-3.3-3.3-3.3c-1.8,0-3.3,1.5-3.3,3.3
				C165,50.2,166.5,51.7,168.3,51.7z"/>
			<path class="st3" d="M175,51.7c1.8,0,3.3-1.5,3.3-3.3c0-1.8-1.5-3.3-3.3-3.3c-1.8,0-3.3,1.5-3.3,3.3
				C171.6,50.2,173.1,51.7,175,51.7z"/>
		</g>
		<path class="st3" d="M117.5,25.9c1.8,0,3.3-1.5,3.3-3.3c0-1.8-1.5-3.3-3.3-3.3c-1.8,0-3.3,1.5-3.3,3.3
			C114.2,24.4,115.7,25.9,117.5,25.9z"/>
		<g>
			<path class="st3" d="M138.2,19.2c1.8,0,3.3-1.5,3.3-3.3c0-1.8-1.5-3.3-3.3-3.3c-1.8,0-3.3,1.5-3.3,3.3
				C134.9,17.7,136.4,19.2,138.2,19.2z"/>
			<path class="st3" d="M144.9,19.2c1.8,0,3.3-1.5,3.3-3.3c0-1.8-1.5-3.3-3.3-3.3c-1.8,0-3.3,1.5-3.3,3.3
				C141.5,17.7,143,19.2,144.9,19.2z"/>
		</g>
		<g>
			<path class="st3" d="M91,19.2c1.8,0,3.3-1.5,3.3-3.3c0-1.8-1.5-3.3-3.3-3.3c-1.8,0-3.3,1.5-3.3,3.3C87.6,17.7,89.1,19.2,91,19.2z
				"/>
			<path class="st3" d="M97.6,19.2c1.8,0,3.3-1.5,3.3-3.3c0-1.8-1.5-3.3-3.3-3.3c-1.8,0-3.3,1.5-3.3,3.3
				C94.3,17.7,95.8,19.2,97.6,19.2z"/>
		</g>
		<polygon class="st0" points="142.6,26.3 142.6,36.1 158.7,36.1 		"/>
		<g>
			<polygon class="st4" points="164.7,40.4 138.9,40.4 138.9,36 157.3,36 142.6,26.3 163,11.8 165.5,15.4 150.4,26.2 165.9,36.4 			
				"/>
		</g>
		<g>
			<rect x="160.7" y="36" class="st4" width="17.5" height="4.4"/>
		</g>
		<g>
			<rect x="106.3" y="36" class="st4" width="17.5" height="4.4"/>
		</g>
		<g>
			<polygon class="st4" points="142.6,36.4 126.4,36.4 126.4,12.7 130.8,12.7 130.8,32 142.6,32 			"/>
		</g>
		<g>
			<rect x="77" y="32.1" class="st4" width="32.9" height="4.3"/>
		</g>
	</g>
</g>
</svg>
